<?xml version="1.0" encoding="UTF-8"?>
<svg xmlns="http://www.w3.org/2000/svg" xmlns:xlink="http://www.w3.org/1999/xlink" width="136px" height="150px" viewBox="0 0 453 498" version="1.1">
<g id="surface1">
<path style=" stroke:none;fill-rule:nonzero;fill:rgb(100%,100%,100%);fill-opacity:1;" d="M 453.75 268.5 C 453.75 345.195312 453.75 421.886719 453.75 498.75 C 381.484375 498.75 309.21875 498.75 236.601562 498.511719 C 236.261719 497.960938 236.277344 497.644531 236.597656 497.285156 C 241.4375 496.453125 245.976562 495.664062 250.703125 494.898438 C 250.972656 494.703125 251.046875 494.484375 251.179688 493.917969 C 251.195312 483.796875 251.160156 474.023438 251.171875 463.96875 C 250.558594 463.183594 249.835938 462.183594 249.25 462.257812 C 247.390625 462.5 245.578125 463.140625 243.503906 463.574219 C 242.917969 463.554688 242.585938 463.589844 241.984375 463.574219 C 240.898438 463.808594 240.074219 464.09375 239.003906 464.324219 C 238.417969 464.304688 238.085938 464.339844 237.484375 464.324219 C 236.398438 464.558594 235.574219 464.84375 234.472656 465.070312 C 233.628906 465.054688 233.0625 465.089844 232.234375 465.074219 C 231.148438 465.308594 230.324219 465.59375 229.183594 465.820312 C 227.578125 465.804688 226.289062 465.839844 224.734375 465.824219 C 223.648438 466.058594 222.824219 466.34375 221.660156 466.570312 C 218.542969 466.554688 215.773438 466.589844 212.734375 466.574219 C 211.648438 466.808594 210.824219 467.09375 209.652344 467.320312 C 151.78125 467.261719 94.257812 467.253906 36.738281 467.253906 C 35.992188 467.253906 35.246094 467.332031 34.25 467.324219 C 33.667969 467.304688 33.335938 467.339844 32.722656 467.191406 C 32.382812 465.890625 32.257812 464.773438 32.257812 463.660156 C 32.25 391.214844 32.25 318.769531 32.25 246.324219 C 32.25 245.375 32.25 244.425781 32.25 243.121094 C 36.027344 245.390625 39.484375 247.386719 42.859375 249.511719 C 61.738281 261.386719 80.601562 273.285156 99.460938 285.1875 C 123.273438 300.214844 147.097656 315.222656 170.875 330.304688 C 193.726562 344.804688 216.503906 359.414062 239.359375 373.90625 C 242.785156 376.078125 246.457031 377.867188 250.152344 380.007812 C 250.566406 379.953125 250.847656 379.726562 251.179688 379.15625 C 251.195312 367.289062 251.160156 355.769531 251.175781 343.984375 C 249.996094 342.871094 248.769531 342.023438 247.523438 341.207031 C 247.507812 341.234375 247.570312 341.207031 247.460938 340.96875 C 245.417969 339.628906 243.480469 338.527344 241.523438 337.457031 C 241.507812 337.484375 241.570312 337.457031 241.472656 337.230469 C 240.679688 336.644531 239.988281 336.285156 239.273438 335.957031 C 239.257812 335.984375 239.320312 335.957031 239.210938 335.71875 C 237.167969 334.378906 235.230469 333.277344 233.273438 332.207031 C 233.257812 332.234375 233.320312 332.207031 233.210938 331.96875 C 231.167969 330.628906 229.230469 329.527344 227.273438 328.457031 C 227.257812 328.484375 227.320312 328.457031 227.222656 328.230469 C 226.429688 327.644531 225.738281 327.285156 225.023438 326.957031 C 225.007812 326.984375 225.070312 326.957031 224.960938 326.71875 C 222.917969 325.378906 220.980469 324.277344 219.023438 323.207031 C 219.007812 323.234375 219.070312 323.207031 218.960938 322.96875 C 216.917969 321.628906 214.980469 320.527344 213.023438 319.457031 C 213.007812 319.484375 213.070312 319.457031 212.972656 319.230469 C 212.179688 318.644531 211.488281 318.285156 210.773438 317.957031 C 210.757812 317.984375 210.820312 317.957031 210.710938 317.71875 C 208.667969 316.378906 206.730469 315.277344 204.773438 314.207031 C 204.757812 314.234375 204.820312 314.207031 204.710938 313.96875 C 202.667969 312.628906 200.730469 311.527344 198.773438 310.457031 C 198.757812 310.484375 198.820312 310.457031 198.722656 310.230469 C 197.929688 309.644531 197.238281 309.285156 196.523438 308.957031 C 196.507812 308.984375 196.570312 308.957031 196.460938 308.71875 C 194.417969 307.378906 192.480469 306.277344 190.523438 305.207031 C 190.507812 305.234375 190.570312 305.207031 190.460938 304.96875 C 188.417969 303.628906 186.480469 302.527344 184.523438 301.457031 C 184.507812 301.484375 184.570312 301.457031 184.472656 301.230469 C 183.679688 300.644531 182.988281 300.285156 182.273438 299.957031 C 182.257812 299.984375 182.320312 299.957031 182.210938 299.71875 C 180.167969 298.378906 178.230469 297.277344 176.273438 296.207031 C 176.257812 296.234375 176.320312 296.207031 176.210938 295.96875 C 174.167969 294.628906 172.230469 293.527344 170.273438 292.457031 C 170.257812 292.484375 170.320312 292.457031 170.222656 292.230469 C 169.429688 291.644531 168.738281 291.285156 168.023438 290.957031 C 168.007812 290.984375 168.070312 290.957031 167.960938 290.71875 C 165.917969 289.378906 163.980469 288.277344 162.023438 287.207031 C 162.007812 287.234375 162.070312 287.207031 161.960938 286.96875 C 159.917969 285.628906 157.980469 284.527344 156.023438 283.457031 C 156.007812 283.484375 156.070312 283.457031 155.972656 283.230469 C 155.179688 282.644531 154.488281 282.285156 153.773438 281.957031 C 153.757812 281.984375 153.820312 281.957031 153.710938 281.71875 C 151.667969 280.378906 149.730469 279.277344 147.773438 278.207031 C 147.757812 278.234375 147.820312 278.207031 147.710938 277.96875 C 145.667969 276.628906 143.730469 275.527344 141.773438 274.457031 C 141.757812 274.484375 141.820312 274.457031 141.722656 274.230469 C 140.929688 273.644531 140.238281 273.285156 139.523438 272.957031 C 139.507812 272.984375 139.570312 272.957031 139.460938 272.71875 C 137.417969 271.378906 135.480469 270.277344 133.523438 269.207031 C 133.507812 269.234375 133.570312 269.207031 133.460938 268.96875 C 131.417969 267.628906 129.480469 266.527344 127.523438 265.457031 C 127.507812 265.484375 127.570312 265.457031 127.472656 265.230469 C 126.679688 264.644531 125.988281 264.285156 125.273438 263.957031 C 125.257812 263.984375 125.320312 263.957031 125.210938 263.71875 C 123.167969 262.378906 121.230469 261.277344 119.273438 260.207031 C 119.257812 260.234375 119.320312 260.207031 119.210938 259.96875 C 117.167969 258.628906 115.230469 257.527344 113.273438 256.457031 C 113.257812 256.484375 113.320312 256.457031 113.222656 256.230469 C 112.429688 255.644531 111.738281 255.285156 111.023438 254.957031 C 111.007812 254.984375 111.070312 254.957031 110.960938 254.71875 C 108.917969 253.378906 106.980469 252.277344 105.023438 251.207031 C 105.007812 251.234375 105.070312 251.207031 104.960938 250.96875 C 102.917969 249.628906 100.980469 248.527344 99.023438 247.457031 C 99.007812 247.484375 99.070312 247.457031 98.972656 247.230469 C 98.179688 246.644531 97.488281 246.285156 96.773438 245.957031 C 96.757812 245.984375 96.820312 245.957031 96.710938 245.71875 C 94.667969 244.378906 92.730469 243.277344 90.773438 242.207031 C 90.757812 242.234375 90.820312 242.207031 90.710938 241.96875 C 88.667969 240.628906 86.730469 239.527344 84.773438 238.457031 C 84.757812 238.484375 84.820312 238.457031 84.722656 238.230469 C 83.929688 237.644531 83.238281 237.285156 82.523438 236.957031 C 82.507812 236.984375 82.570312 236.957031 82.460938 236.71875 C 80.417969 235.378906 78.480469 234.277344 76.523438 233.207031 C 76.507812 233.234375 76.570312 233.207031 76.460938 232.96875 C 74.417969 231.628906 72.480469 230.527344 70.523438 229.457031 C 70.507812 229.484375 70.570312 229.457031 70.472656 229.230469 C 69.679688 228.644531 68.988281 228.285156 68.273438 227.957031 C 68.257812 227.984375 68.320312 227.957031 68.210938 227.71875 C 66.167969 226.378906 64.230469 225.277344 62.273438 224.207031 C 62.257812 224.234375 62.320312 224.207031 62.210938 223.96875 C 60.167969 222.628906 58.230469 221.527344 56.273438 220.457031 C 56.257812 220.484375 56.320312 220.457031 56.222656 220.230469 C 55.429688 219.644531 54.738281 219.285156 54.023438 218.957031 C 54.007812 218.984375 54.070312 218.957031 53.960938 218.71875 C 51.917969 217.378906 49.980469 216.277344 48.023438 215.207031 C 48.007812 215.234375 48.070312 215.207031 47.960938 214.96875 C 45.917969 213.628906 43.980469 212.527344 42.023438 211.457031 C 42.007812 211.484375 42.070312 211.457031 41.972656 211.230469 C 41.179688 210.644531 40.488281 210.285156 39.773438 209.957031 C 39.757812 209.984375 39.820312 209.957031 39.710938 209.71875 C 37.667969 208.378906 35.730469 207.277344 33.773438 206.207031 C 33.757812 206.234375 33.820312 206.207031 33.710938 205.96875 C 31.667969 204.628906 29.730469 203.527344 27.773438 202.457031 C 27.757812 202.484375 27.820312 202.457031 27.722656 202.230469 C 26.929688 201.644531 26.238281 201.285156 25.523438 200.957031 C 25.507812 200.984375 25.570312 200.957031 25.460938 200.71875 C 23.417969 199.378906 21.480469 198.277344 19.523438 197.207031 C 19.507812 197.234375 19.570312 197.207031 19.460938 196.96875 C 17.417969 195.628906 15.480469 194.527344 13.523438 193.457031 C 13.507812 193.484375 13.570312 193.457031 13.472656 193.230469 C 12.679688 192.644531 11.988281 192.285156 11.273438 191.957031 C 11.257812 191.984375 11.320312 191.957031 11.210938 191.71875 C 9.164062 190.375 7.222656 189.269531 5.191406 187.945312 C 4.429688 187.386719 3.757812 187.054688 2.984375 186.488281 C 2.171875 185.921875 1.460938 185.585938 0.75 185.25 C 0.75 176.484375 0.75 167.71875 1 158.675781 C 11.375 164.910156 21.503906 171.421875 32.261719 178.335938 C 32.261719 129.191406 32.261719 80.898438 32.261719 32.25 C 33.941406 32.25 35.285156 32.25 36.625 32.25 C 55.75 32.25 74.875 32.171875 93.996094 32.265625 C 134.445312 32.464844 174.894531 32.582031 215.339844 33.128906 C 224.519531 33.253906 233.730469 34.652344 242.832031 36.0625 C 262.164062 39.054688 280.578125 45.203125 298.035156 53.9375 C 307.542969 58.695312 316.609375 64.335938 325.886719 69.5625 C 325.894531 69.550781 325.914062 69.574219 326.019531 69.789062 C 325.839844 70.433594 325.660156 71.023438 325.261719 71.277344 C 311.011719 80.308594 296.722656 89.285156 282.476562 98.324219 C 255.523438 115.425781 228.613281 132.59375 201.644531 149.671875 C 180.464844 163.082031 159.214844 176.378906 138.015625 189.753906 C 124.984375 197.976562 112.011719 206.292969 98.960938 214.480469 C 95.042969 216.9375 94.933594 218.117188 98.722656 220.453125 C 106.53125 225.257812 114.257812 230.199219 122.140625 234.871094 C 123.304688 235.558594 125.554688 235.730469 126.632812 235.0625 C 142.734375 225.0625 158.71875 214.878906 174.742188 204.753906 C 195.730469 191.496094 216.738281 178.273438 237.714844 165 C 250.632812 156.824219 263.472656 148.519531 276.410156 140.378906 C 296.277344 127.875 316.210938 115.476562 336.097656 103.003906 C 350.183594 94.171875 364.226562 85.269531 378.3125 76.433594 C 381.996094 74.121094 382 73.484375 377.9375 70.945312 C 372.917969 66.382812 368.003906 62.050781 362.976562 57.484375 C 360.675781 55.644531 358.484375 54.035156 356.285156 52.445312 C 356.277344 52.464844 356.3125 52.449219 356.207031 52.214844 C 345.515625 44.941406 335.316406 37.214844 324.257812 31.023438 C 308.464844 22.179688 291.867188 14.8125 274.183594 10.464844 C 262.703125 7.640625 251.054688 5.488281 239.492188 2.976562 C 236.636719 2.355469 233.828125 1.5 231 0.75 C 305.195312 0.75 379.390625 0.75 453.75 0.75 C 453.75 77.265625 453.75 153.78125 453.464844 230.503906 C 452.359375 223.128906 452.039062 215.453125 450.613281 207.988281 C 447.761719 193.035156 444.28125 178.234375 438.824219 163.925781 C 432.710938 147.890625 425.574219 132.386719 416.234375 117.988281 C 410.851562 109.691406 404.984375 101.710938 399.199219 93.679688 C 398.332031 92.476562 397.363281 90.535156 395 92.082031 C 387.441406 97.027344 379.8125 101.871094 372.152344 106.660156 C 370.261719 107.84375 369.804688 108.976562 371.34375 110.734375 C 372.144531 111.652344 372.777344 112.71875 373.554688 113.660156 C 382.566406 124.527344 390.15625 136.328125 396.800781 148.761719 C 405.992188 165.964844 412.738281 184.117188 416.835938 203.152344 C 418.972656 213.066406 420.425781 223.179688 421.355469 233.28125 C 422.074219 241.113281 421.878906 249.082031 421.410156 256.953125 C 420.765625 267.757812 420.171875 278.648438 418.3125 289.285156 C 415.199219 307.089844 409.605469 324.265625 401.925781 340.660156 C 392.886719 359.949219 381.507812 377.832031 367.144531 393.566406 C 355.375 406.460938 342.738281 418.5625 328.070312 428.25 C 320.980469 432.929688 313.667969 437.273438 305.832031 442.160156 C 305.832031 343.96875 305.832031 246.691406 305.832031 148.886719 C 304.660156 149.449219 303.898438 149.726562 303.230469 150.152344 C 294.789062 155.535156 286.515625 161.207031 277.84375 166.191406 C 274.621094 168.042969 273.679688 169.90625 273.679688 173.402344 C 273.765625 277.136719 273.75 380.871094 273.75 484.605469 C 273.75 486.03125 273.75 487.453125 273.75 489.265625 C 276.769531 488.351562 279.207031 487.636719 281.628906 486.875 C 297.40625 481.90625 312.367188 475.09375 326.800781 467.046875 C 342.925781 458.054688 357.9375 447.449219 371.449219 434.949219 C 380.457031 426.613281 388.65625 417.367188 396.839844 408.191406 C 407.886719 395.8125 416.667969 381.820312 424.535156 367.253906 C 434.847656 348.15625 442.582031 328.074219 447.308594 306.859375 C 449.453125 297.230469 451.824219 287.648438 452.308594 277.71875 C 452.457031 274.628906 453.25 271.574219 453.75 268.5 Z M 453.75 268.5 "/>
<path style=" stroke:none;fill-rule:nonzero;fill:rgb(92.941176%,5.882353%,41.176471%);fill-opacity:1;" d="M 225 465.875 C 226.289062 465.839844 227.578125 465.804688 229.226562 466.0625 C 231.550781 468.277344 232.03125 466.710938 232.5 465.125 C 233.0625 465.089844 233.628906 465.054688 234.519531 465.3125 C 236.800781 467.527344 237.28125 465.960938 237.75 464.375 C 238.085938 464.339844 238.417969 464.304688 239.046875 464.566406 C 241.300781 466.777344 241.78125 465.210938 242.25 463.625 C 242.585938 463.589844 242.917969 463.554688 243.5625 463.835938 C 246.289062 464.183594 248.707031 464.214844 251.125 464.25 C 251.160156 474.023438 251.195312 483.796875 251.046875 493.984375 C 250.699219 494.523438 250.582031 494.683594 250.511719 494.875 C 245.976562 495.664062 241.4375 496.453125 236.402344 497.058594 C 234.015625 497.210938 232.132812 497.542969 229.933594 497.929688 C 228.339844 498.015625 227.0625 498.050781 225.613281 497.867188 C 224.292969 498.019531 223.148438 498.382812 222 498.75 C 148.734375 498.75 75.46875 498.75 1.769531 498.585938 C 1.1875 498.214844 0.992188 498.074219 0.75 498 C 0.75 394.484375 0.75 290.96875 1.042969 187.101562 C 1.917969 186.738281 2.5 186.730469 3.085938 186.71875 C 3.757812 187.054688 4.429688 187.386719 5.214844 188.207031 C 7.328125 189.78125 9.324219 190.867188 11.320312 191.957031 C 11.320312 191.957031 11.257812 191.984375 11.300781 192.226562 C 12.085938 192.796875 12.828125 193.125 13.570312 193.457031 C 13.570312 193.457031 13.507812 193.484375 13.546875 193.71875 C 15.578125 195.039062 17.574219 196.121094 19.570312 197.207031 C 19.570312 197.207031 19.507812 197.234375 19.546875 197.46875 C 21.578125 198.789062 23.574219 199.871094 25.570312 200.957031 C 25.570312 200.957031 25.507812 200.984375 25.550781 201.226562 C 26.335938 201.796875 27.078125 202.125 27.820312 202.457031 C 27.820312 202.457031 27.757812 202.484375 27.796875 202.71875 C 29.828125 204.039062 31.824219 205.121094 33.820312 206.207031 C 33.820312 206.207031 33.757812 206.234375 33.796875 206.46875 C 35.828125 207.789062 37.824219 208.871094 39.820312 209.957031 C 39.820312 209.957031 39.757812 209.984375 39.800781 210.226562 C 40.585938 210.796875 41.328125 211.125 42.070312 211.457031 C 42.070312 211.457031 42.007812 211.484375 42.046875 211.71875 C 44.078125 213.039062 46.074219 214.121094 48.070312 215.207031 C 48.070312 215.207031 48.007812 215.234375 48.046875 215.46875 C 50.078125 216.789062 52.074219 217.871094 54.070312 218.957031 C 54.070312 218.957031 54.007812 218.984375 54.050781 219.226562 C 54.835938 219.796875 55.578125 220.125 56.320312 220.457031 C 56.320312 220.457031 56.257812 220.484375 56.296875 220.71875 C 58.328125 222.039062 60.324219 223.121094 62.320312 224.207031 C 62.320312 224.207031 62.257812 224.234375 62.296875 224.46875 C 64.328125 225.789062 66.324219 226.871094 68.320312 227.957031 C 68.320312 227.957031 68.257812 227.984375 68.300781 228.226562 C 69.085938 228.796875 69.828125 229.125 70.570312 229.457031 C 70.570312 229.457031 70.507812 229.484375 70.546875 229.71875 C 72.578125 231.039062 74.574219 232.121094 76.570312 233.207031 C 76.570312 233.207031 76.507812 233.234375 76.546875 233.46875 C 78.578125 234.789062 80.574219 235.871094 82.570312 236.957031 C 82.570312 236.957031 82.507812 236.984375 82.550781 237.226562 C 83.335938 237.796875 84.078125 238.125 84.820312 238.457031 C 84.820312 238.457031 84.757812 238.484375 84.796875 238.71875 C 86.828125 240.039062 88.824219 241.121094 90.820312 242.207031 C 90.820312 242.207031 90.757812 242.234375 90.796875 242.46875 C 92.828125 243.789062 94.824219 244.871094 96.820312 245.957031 C 96.820312 245.957031 96.757812 245.984375 96.800781 246.226562 C 97.585938 246.796875 98.328125 247.125 99.070312 247.457031 C 99.070312 247.457031 99.007812 247.484375 99.046875 247.71875 C 101.078125 249.039062 103.074219 250.121094 105.070312 251.207031 C 105.070312 251.207031 105.007812 251.234375 105.046875 251.46875 C 107.078125 252.789062 109.074219 253.871094 111.070312 254.957031 C 111.070312 254.957031 111.007812 254.984375 111.050781 255.226562 C 111.835938 255.796875 112.578125 256.125 113.320312 256.457031 C 113.320312 256.457031 113.257812 256.484375 113.296875 256.71875 C 115.328125 258.039062 117.324219 259.121094 119.320312 260.207031 C 119.320312 260.207031 119.257812 260.234375 119.296875 260.46875 C 121.328125 261.789062 123.324219 262.871094 125.320312 263.957031 C 125.320312 263.957031 125.257812 263.984375 125.300781 264.226562 C 126.085938 264.796875 126.828125 265.125 127.570312 265.457031 C 127.570312 265.457031 127.507812 265.484375 127.546875 265.71875 C 129.578125 267.039062 131.574219 268.121094 133.570312 269.207031 C 133.570312 269.207031 133.507812 269.234375 133.546875 269.46875 C 135.578125 270.789062 137.574219 271.871094 139.570312 272.957031 C 139.570312 272.957031 139.507812 272.984375 139.550781 273.226562 C 140.335938 273.796875 141.078125 274.125 141.820312 274.457031 C 141.820312 274.457031 141.757812 274.484375 141.796875 274.71875 C 143.828125 276.039062 145.824219 277.121094 147.820312 278.207031 C 147.820312 278.207031 147.757812 278.234375 147.796875 278.46875 C 149.828125 279.789062 151.824219 280.871094 153.820312 281.957031 C 153.820312 281.957031 153.757812 281.984375 153.800781 282.226562 C 154.585938 282.796875 155.328125 283.125 156.070312 283.457031 C 156.070312 283.457031 156.007812 283.484375 156.046875 283.71875 C 158.078125 285.039062 160.074219 286.121094 162.070312 287.207031 C 162.070312 287.207031 162.007812 287.234375 162.046875 287.46875 C 164.078125 288.789062 166.074219 289.871094 168.070312 290.957031 C 168.070312 290.957031 168.007812 290.984375 168.050781 291.226562 C 168.835938 291.796875 169.578125 292.125 170.320312 292.457031 C 170.320312 292.457031 170.257812 292.484375 170.296875 292.71875 C 172.328125 294.039062 174.324219 295.121094 176.320312 296.207031 C 176.320312 296.207031 176.257812 296.234375 176.296875 296.46875 C 178.328125 297.789062 180.324219 298.871094 182.320312 299.957031 C 182.320312 299.957031 182.257812 299.984375 182.300781 300.226562 C 183.085938 300.796875 183.828125 301.125 184.570312 301.457031 C 184.570312 301.457031 184.507812 301.484375 184.546875 301.71875 C 186.578125 303.039062 188.574219 304.121094 190.570312 305.207031 C 190.570312 305.207031 190.507812 305.234375 190.546875 305.46875 C 192.578125 306.789062 194.574219 307.871094 196.570312 308.957031 C 196.570312 308.957031 196.507812 308.984375 196.550781 309.226562 C 197.335938 309.796875 198.078125 310.125 198.820312 310.457031 C 198.820312 310.457031 198.757812 310.484375 198.796875 310.71875 C 200.828125 312.039062 202.824219 313.121094 204.820312 314.207031 C 204.820312 314.207031 204.757812 314.234375 204.796875 314.46875 C 206.828125 315.789062 208.824219 316.871094 210.820312 317.957031 C 210.820312 317.957031 210.757812 317.984375 210.800781 318.226562 C 211.585938 318.796875 212.328125 319.125 213.070312 319.457031 C 213.070312 319.457031 213.007812 319.484375 213.046875 319.71875 C 215.078125 321.039062 217.074219 322.121094 219.070312 323.207031 C 219.070312 323.207031 219.007812 323.234375 219.046875 323.46875 C 221.078125 324.789062 223.074219 325.871094 225.070312 326.957031 C 225.070312 326.957031 225.007812 326.984375 225.050781 327.226562 C 225.835938 327.796875 226.578125 328.125 227.320312 328.457031 C 227.320312 328.457031 227.257812 328.484375 227.296875 328.71875 C 229.328125 330.039062 231.324219 331.121094 233.320312 332.207031 C 233.320312 332.207031 233.257812 332.234375 233.296875 332.46875 C 235.328125 333.789062 237.324219 334.871094 239.320312 335.957031 C 239.320312 335.957031 239.257812 335.984375 239.300781 336.226562 C 240.085938 336.796875 240.828125 337.125 241.570312 337.457031 C 241.570312 337.457031 241.507812 337.484375 241.546875 337.71875 C 243.578125 339.039062 245.574219 340.121094 247.570312 341.207031 C 247.570312 341.207031 247.507812 341.234375 247.542969 341.460938 C 248.761719 342.539062 249.941406 343.394531 251.125 344.25 C 251.160156 355.769531 251.195312 367.289062 250.890625 379.207031 C 250.371094 379.683594 250.191406 379.761719 250.011719 379.835938 C 246.457031 377.867188 242.785156 376.078125 239.359375 373.90625 C 216.503906 359.414062 193.726562 344.804688 170.875 330.304688 C 147.097656 315.222656 123.273438 300.214844 99.460938 285.1875 C 80.601562 273.285156 61.738281 261.386719 42.859375 249.511719 C 39.484375 247.386719 36.027344 245.390625 32.25 243.121094 C 32.25 244.425781 32.25 245.375 32.25 246.324219 C 32.25 318.769531 32.25 391.214844 32.257812 463.660156 C 32.257812 464.773438 32.382812 465.890625 32.757812 467.402344 C 33.304688 468.015625 33.542969 468.238281 33.78125 468.457031 C 34.019531 468.097656 34.261719 467.734375 34.5 467.375 C 35.246094 467.332031 35.992188 467.253906 36.738281 467.253906 C 94.257812 467.253906 151.78125 467.261719 209.699219 467.5625 C 212.050781 469.777344 212.53125 468.210938 213 466.625 C 215.773438 466.589844 218.542969 466.554688 221.703125 466.8125 C 224.050781 469.027344 224.53125 467.460938 225 465.875 Z M 225 465.875 "/>
<path style=" stroke:none;fill-rule:nonzero;fill:rgb(0%,67.058824%,77.254902%);fill-opacity:1;" d="M 453.75 268.148438 C 453.25 271.574219 452.457031 274.628906 452.308594 277.71875 C 451.824219 287.648438 449.453125 297.230469 447.308594 306.859375 C 442.582031 328.074219 434.847656 348.15625 424.535156 367.253906 C 416.667969 381.820312 407.886719 395.8125 396.839844 408.191406 C 388.65625 417.367188 380.457031 426.613281 371.449219 434.949219 C 357.9375 447.449219 342.925781 458.054688 326.800781 467.046875 C 312.367188 475.09375 297.40625 481.90625 281.628906 486.875 C 279.207031 487.636719 276.769531 488.351562 273.75 489.265625 C 273.75 487.453125 273.75 486.03125 273.75 484.605469 C 273.75 380.871094 273.765625 277.136719 273.679688 173.402344 C 273.679688 169.90625 274.621094 168.042969 277.84375 166.191406 C 286.515625 161.207031 294.789062 155.535156 303.230469 150.152344 C 303.898438 149.726562 304.660156 149.449219 305.832031 148.886719 C 305.832031 246.691406 305.832031 343.96875 305.832031 442.160156 C 313.667969 437.273438 320.980469 432.929688 328.070312 428.25 C 342.738281 418.5625 355.375 406.460938 367.144531 393.566406 C 381.507812 377.832031 392.886719 359.949219 401.925781 340.660156 C 409.605469 324.265625 415.199219 307.089844 418.3125 289.285156 C 420.171875 278.648438 420.765625 267.757812 421.410156 256.953125 C 421.878906 249.082031 422.074219 241.113281 421.355469 233.28125 C 420.425781 223.179688 418.972656 213.066406 416.835938 203.152344 C 412.738281 184.117188 405.992188 165.964844 396.800781 148.761719 C 390.15625 136.328125 382.566406 124.527344 373.554688 113.660156 C 372.777344 112.71875 372.144531 111.652344 371.34375 110.734375 C 369.804688 108.976562 370.261719 107.84375 372.152344 106.660156 C 379.8125 101.871094 387.441406 97.027344 395 92.082031 C 397.363281 90.535156 398.332031 92.476562 399.199219 93.679688 C 404.984375 101.710938 410.851562 109.691406 416.234375 117.988281 C 425.574219 132.386719 432.710938 147.890625 438.824219 163.925781 C 444.28125 178.234375 447.761719 193.035156 450.613281 207.988281 C 452.039062 215.453125 452.359375 223.128906 453.464844 230.855469 C 453.75 243.265625 453.75 255.53125 453.75 268.148438 Z M 453.75 268.148438 "/>
<path style=" stroke:none;fill-rule:nonzero;fill:rgb(96.078431%,50.980392%,12.54902%);fill-opacity:1;" d="M 325.875 69.578125 C 316.609375 64.335938 307.542969 58.695312 298.035156 53.9375 C 280.578125 45.203125 262.164062 39.054688 242.832031 36.0625 C 233.730469 34.652344 224.519531 33.253906 215.339844 33.128906 C 174.894531 32.582031 134.445312 32.464844 93.996094 32.265625 C 74.875 32.171875 55.75 32.25 36.625 32.25 C 35.285156 32.25 33.941406 32.25 32.261719 32.25 C 32.261719 80.898438 32.261719 129.191406 32.261719 178.335938 C 21.503906 171.421875 11.375 164.910156 1 158.324219 C 0.75 105.796875 0.75 53.339844 0.75 0.75 C 75.515625 0.75 150.28125 0.75 225.496094 1 C 226.882812 1.085938 227.816406 0.917969 228.75 0.75 C 229.3125 0.75 229.875 0.75 230.71875 0.75 C 233.828125 1.5 236.636719 2.355469 239.492188 2.976562 C 251.054688 5.488281 262.703125 7.640625 274.183594 10.464844 C 291.867188 14.8125 308.464844 22.179688 324.257812 31.023438 C 335.316406 37.214844 345.515625 44.941406 355.910156 52.230469 C 352.457031 50.625 349.003906 49.042969 345.964844 46.878906 C 328.101562 34.191406 308.5 24.878906 288.003906 17.519531 C 277.976562 13.921875 267.542969 11.179688 257.078125 9.140625 C 244.691406 6.730469 232.085938 4.074219 219.558594 3.984375 C 149.066406 3.496094 78.566406 3.773438 8.070312 3.679688 C 4.65625 3.671875 3.648438 4.539062 3.671875 8.027344 C 3.816406 34.152344 3.75 60.277344 3.75 86.398438 C 3.75 109.023438 3.722656 131.648438 3.816406 154.273438 C 3.820312 155.628906 4.375 157.566406 5.355469 158.238281 C 11.625 162.546875 18.0625 166.609375 24.503906 170.664062 C 25.679688 171.40625 27.113281 171.738281 28.425781 172.261719 C 28.699219 170.871094 29.214844 169.480469 29.214844 168.085938 C 29.257812 123.589844 29.25 79.089844 29.25 34.59375 C 29.25 29.253906 29.253906 29.25 34.652344 29.25 C 82.648438 29.25 130.648438 29.128906 178.644531 29.320312 C 194.582031 29.382812 210.53125 29.972656 226.445312 30.824219 C 240.890625 31.601562 254.945312 34.921875 268.730469 39.199219 C 286.863281 44.824219 303.972656 52.777344 319.921875 63.058594 C 322.234375 64.550781 326.585938 65.007812 325.875 69.578125 Z M 325.875 69.578125 "/>
<path style=" stroke:none;fill-rule:nonzero;fill:rgb(92.941176%,5.882353%,41.176471%);fill-opacity:1;" d="M 230.25 497.875 C 232.132812 497.542969 234.015625 497.210938 236.09375 497.101562 C 236.277344 497.644531 236.261719 497.960938 236.25 498.511719 C 234.964844 498.75 233.679688 498.75 232.003906 498.519531 C 231.160156 498.148438 230.707031 498.011719 230.25 497.875 Z M 230.25 497.875 "/>
<path style=" stroke:none;fill-rule:nonzero;fill:rgb(100%,100%,100%);fill-opacity:1;" d="M 226.082031 498.75 C 225.75 498.75 225.753906 498.417969 225.769531 498.25 C 227.0625 498.050781 228.339844 498.015625 229.933594 497.929688 C 230.707031 498.011719 231.160156 498.148438 231.683594 498.519531 C 229.972656 498.75 228.195312 498.75 226.082031 498.75 Z M 226.082031 498.75 "/>
<path style=" stroke:none;fill-rule:nonzero;fill:rgb(92.941176%,5.882353%,41.176471%);fill-opacity:1;" d="M 2.984375 186.488281 C 2.5 186.730469 1.917969 186.738281 1.042969 186.75 C 0.75 186.417969 0.75 186.082031 0.75 185.5 C 1.460938 185.585938 2.171875 185.921875 2.984375 186.488281 Z M 2.984375 186.488281 "/>
<path style=" stroke:none;fill-rule:nonzero;fill:rgb(100%,100%,100%);fill-opacity:1;" d="M 228.449219 0.75 C 227.816406 0.917969 226.882812 1.085938 225.847656 1 C 226.550781 0.75 227.351562 0.75 228.449219 0.75 Z M 228.449219 0.75 "/>
<path style=" stroke:none;fill-rule:nonzero;fill:rgb(96.078431%,50.980392%,12.54902%);fill-opacity:1;" d="M 325.886719 69.5625 C 326.585938 65.007812 322.234375 64.550781 319.921875 63.058594 C 303.972656 52.777344 286.863281 44.824219 268.730469 39.199219 C 254.945312 34.921875 240.890625 31.601562 226.445312 30.824219 C 210.53125 29.972656 194.582031 29.382812 178.644531 29.320312 C 130.648438 29.128906 82.648438 29.25 34.652344 29.25 C 29.253906 29.25 29.25 29.253906 29.25 34.59375 C 29.25 79.089844 29.257812 123.589844 29.214844 168.085938 C 29.214844 169.480469 28.699219 170.871094 28.425781 172.261719 C 27.113281 171.738281 25.679688 171.40625 24.503906 170.664062 C 18.0625 166.609375 11.625 162.546875 5.355469 158.238281 C 4.375 157.566406 3.820312 155.628906 3.816406 154.273438 C 3.722656 131.648438 3.75 109.023438 3.75 86.398438 C 3.75 60.277344 3.816406 34.152344 3.671875 8.027344 C 3.648438 4.539062 4.65625 3.671875 8.070312 3.679688 C 78.566406 3.773438 149.066406 3.496094 219.558594 3.984375 C 232.085938 4.074219 244.691406 6.730469 257.078125 9.140625 C 267.542969 11.179688 277.976562 13.921875 288.003906 17.519531 C 308.5 24.878906 328.101562 34.191406 345.964844 46.878906 C 349.003906 49.042969 352.457031 50.625 356.019531 52.464844 C 356.3125 52.449219 356.277344 52.464844 356.277344 52.734375 C 357.53125 56.042969 359.699219 57.761719 363.085938 57.71875 C 368.003906 62.050781 372.917969 66.382812 377.824219 71.179688 C 377.066406 72.289062 376.390625 73.039062 375.566406 73.558594 C 362.09375 82.078125 348.601562 90.558594 335.125 99.066406 C 306.589844 117.074219 278.0625 135.097656 249.527344 153.109375 C 221.835938 170.585938 194.140625 188.058594 166.441406 205.527344 C 152.960938 214.03125 139.449219 222.484375 126.015625 231.058594 C 123.996094 232.34375 122.660156 232.667969 120.460938 231.042969 C 116.035156 227.769531 111.183594 225.082031 106.546875 222.085938 C 100.179688 217.972656 100.132812 217.84375 106.734375 213.65625 C 135.128906 195.65625 163.558594 177.710938 191.984375 159.761719 C 217.777344 143.472656 243.582031 127.203125 269.386719 110.933594 C 282.867188 102.433594 296.367188 93.960938 309.835938 85.441406 C 316.320312 81.339844 322.757812 77.160156 330.175781 72.398438 C 328.300781 71.15625 327.109375 70.363281 325.914062 69.574219 C 325.914062 69.574219 325.894531 69.550781 325.886719 69.5625 Z M 325.886719 69.5625 "/>
<path style=" stroke:none;fill-rule:nonzero;fill:rgb(96.078431%,50.980392%,12.54902%);fill-opacity:1;" d="M 326.019531 69.789062 C 327.109375 70.363281 328.300781 71.15625 330.175781 72.398438 C 322.757812 77.160156 316.320312 81.339844 309.835938 85.441406 C 296.367188 93.960938 282.867188 102.433594 269.386719 110.933594 C 243.582031 127.203125 217.777344 143.472656 191.984375 159.761719 C 163.558594 177.710938 135.128906 195.65625 106.734375 213.65625 C 100.132812 217.84375 100.179688 217.972656 106.546875 222.085938 C 111.183594 225.082031 116.035156 227.769531 120.460938 231.042969 C 122.660156 232.667969 123.996094 232.34375 126.015625 231.058594 C 139.449219 222.484375 152.960938 214.03125 166.441406 205.527344 C 194.140625 188.058594 221.835938 170.585938 249.527344 153.109375 C 278.0625 135.097656 306.589844 117.074219 335.125 99.066406 C 348.601562 90.558594 362.09375 82.078125 375.566406 73.558594 C 376.390625 73.039062 377.066406 72.289062 377.925781 71.40625 C 382 73.484375 381.996094 74.121094 378.3125 76.433594 C 364.226562 85.269531 350.183594 94.171875 336.097656 103.003906 C 316.210938 115.476562 296.277344 127.875 276.410156 140.378906 C 263.472656 148.519531 250.632812 156.824219 237.714844 165 C 216.738281 178.273438 195.730469 191.496094 174.742188 204.753906 C 158.71875 214.878906 142.734375 225.0625 126.632812 235.0625 C 125.554688 235.730469 123.304688 235.558594 122.140625 234.871094 C 114.257812 230.199219 106.53125 225.257812 98.722656 220.453125 C 94.933594 218.117188 95.042969 216.9375 98.960938 214.480469 C 112.011719 206.292969 124.984375 197.976562 138.015625 189.753906 C 159.214844 176.378906 180.464844 163.082031 201.644531 149.671875 C 228.613281 132.59375 255.523438 115.425781 282.476562 98.324219 C 296.722656 89.285156 311.011719 80.308594 325.261719 71.277344 C 325.660156 71.023438 325.839844 70.433594 326.019531 69.789062 Z M 326.019531 69.789062 "/>
<path style=" stroke:none;fill-rule:nonzero;fill:rgb(96.078431%,50.980392%,12.54902%);fill-opacity:1;" d="M 362.976562 57.484375 C 359.699219 57.761719 357.53125 56.042969 356.285156 52.71875 C 358.484375 54.035156 360.675781 55.644531 362.976562 57.484375 Z M 362.976562 57.484375 "/>
<path style=" stroke:none;fill-rule:nonzero;fill:rgb(92.941176%,5.882353%,41.176471%);fill-opacity:1;" d="M 251.171875 463.96875 C 248.707031 464.214844 246.289062 464.183594 243.808594 463.886719 C 245.578125 463.140625 247.390625 462.5 249.25 462.257812 C 249.835938 462.183594 250.558594 463.183594 251.171875 463.96875 Z M 251.171875 463.96875 "/>
<path style=" stroke:none;fill-rule:nonzero;fill:rgb(92.941176%,5.882353%,41.176471%);fill-opacity:1;" d="M 110.960938 254.71875 C 109.074219 253.871094 107.078125 252.789062 105.0625 251.441406 C 106.980469 252.277344 108.917969 253.378906 110.960938 254.71875 Z M 110.960938 254.71875 "/>
<path style=" stroke:none;fill-rule:nonzero;fill:rgb(92.941176%,5.882353%,41.176471%);fill-opacity:1;" d="M 133.460938 268.96875 C 131.574219 268.121094 129.578125 267.039062 127.5625 265.691406 C 129.480469 266.527344 131.417969 267.628906 133.460938 268.96875 Z M 133.460938 268.96875 "/>
<path style=" stroke:none;fill-rule:nonzero;fill:rgb(92.941176%,5.882353%,41.176471%);fill-opacity:1;" d="M 125.210938 263.71875 C 123.324219 262.871094 121.328125 261.789062 119.3125 260.441406 C 121.230469 261.277344 123.167969 262.378906 125.210938 263.71875 Z M 125.210938 263.71875 "/>
<path style=" stroke:none;fill-rule:nonzero;fill:rgb(92.941176%,5.882353%,41.176471%);fill-opacity:1;" d="M 119.210938 259.96875 C 117.324219 259.121094 115.328125 258.039062 113.3125 256.691406 C 115.230469 257.527344 117.167969 258.628906 119.210938 259.96875 Z M 119.210938 259.96875 "/>
<path style=" stroke:none;fill-rule:nonzero;fill:rgb(92.941176%,5.882353%,41.176471%);fill-opacity:1;" d="M 247.460938 340.96875 C 245.574219 340.121094 243.578125 339.039062 241.5625 337.691406 C 243.480469 338.527344 245.417969 339.628906 247.460938 340.96875 Z M 247.460938 340.96875 "/>
<path style=" stroke:none;fill-rule:nonzero;fill:rgb(92.941176%,5.882353%,41.176471%);fill-opacity:1;" d="M 104.960938 250.96875 C 103.074219 250.121094 101.078125 249.039062 99.0625 247.691406 C 100.980469 248.527344 102.917969 249.628906 104.960938 250.96875 Z M 104.960938 250.96875 "/>
<path style=" stroke:none;fill-rule:nonzero;fill:rgb(92.941176%,5.882353%,41.176471%);fill-opacity:1;" d="M 196.460938 308.71875 C 194.574219 307.871094 192.578125 306.789062 190.5625 305.441406 C 192.480469 306.277344 194.417969 307.378906 196.460938 308.71875 Z M 196.460938 308.71875 "/>
<path style=" stroke:none;fill-rule:nonzero;fill:rgb(92.941176%,5.882353%,41.176471%);fill-opacity:1;" d="M 139.460938 272.71875 C 137.574219 271.871094 135.578125 270.789062 133.5625 269.441406 C 135.480469 270.277344 137.417969 271.378906 139.460938 272.71875 Z M 139.460938 272.71875 "/>
<path style=" stroke:none;fill-rule:nonzero;fill:rgb(92.941176%,5.882353%,41.176471%);fill-opacity:1;" d="M 147.710938 277.96875 C 145.824219 277.121094 143.828125 276.039062 141.8125 274.691406 C 143.730469 275.527344 145.667969 276.628906 147.710938 277.96875 Z M 147.710938 277.96875 "/>
<path style=" stroke:none;fill-rule:nonzero;fill:rgb(92.941176%,5.882353%,41.176471%);fill-opacity:1;" d="M 153.710938 281.71875 C 151.824219 280.871094 149.828125 279.789062 147.8125 278.441406 C 149.730469 279.277344 151.667969 280.378906 153.710938 281.71875 Z M 153.710938 281.71875 "/>
<path style=" stroke:none;fill-rule:nonzero;fill:rgb(92.941176%,5.882353%,41.176471%);fill-opacity:1;" d="M 82.460938 236.71875 C 80.574219 235.871094 78.578125 234.789062 76.5625 233.441406 C 78.480469 234.277344 80.417969 235.378906 82.460938 236.71875 Z M 82.460938 236.71875 "/>
<path style=" stroke:none;fill-rule:nonzero;fill:rgb(92.941176%,5.882353%,41.176471%);fill-opacity:1;" d="M 161.960938 286.96875 C 160.074219 286.121094 158.078125 285.039062 156.0625 283.691406 C 157.980469 284.527344 159.917969 285.628906 161.960938 286.96875 Z M 161.960938 286.96875 "/>
<path style=" stroke:none;fill-rule:nonzero;fill:rgb(92.941176%,5.882353%,41.176471%);fill-opacity:1;" d="M 167.960938 290.71875 C 166.074219 289.871094 164.078125 288.789062 162.0625 287.441406 C 163.980469 288.277344 165.917969 289.378906 167.960938 290.71875 Z M 167.960938 290.71875 "/>
<path style=" stroke:none;fill-rule:nonzero;fill:rgb(92.941176%,5.882353%,41.176471%);fill-opacity:1;" d="M 190.460938 304.96875 C 188.574219 304.121094 186.578125 303.039062 184.5625 301.691406 C 186.480469 302.527344 188.417969 303.628906 190.460938 304.96875 Z M 190.460938 304.96875 "/>
<path style=" stroke:none;fill-rule:nonzero;fill:rgb(92.941176%,5.882353%,41.176471%);fill-opacity:1;" d="M 176.210938 295.96875 C 174.324219 295.121094 172.328125 294.039062 170.3125 292.691406 C 172.230469 293.527344 174.167969 294.628906 176.210938 295.96875 Z M 176.210938 295.96875 "/>
<path style=" stroke:none;fill-rule:nonzero;fill:rgb(92.941176%,5.882353%,41.176471%);fill-opacity:1;" d="M 182.210938 299.71875 C 180.324219 298.871094 178.328125 297.789062 176.3125 296.441406 C 178.230469 297.277344 180.167969 298.378906 182.210938 299.71875 Z M 182.210938 299.71875 "/>
<path style=" stroke:none;fill-rule:nonzero;fill:rgb(92.941176%,5.882353%,41.176471%);fill-opacity:1;" d="M 239.210938 335.71875 C 237.324219 334.871094 235.328125 333.789062 233.3125 332.441406 C 235.230469 333.277344 237.167969 334.378906 239.210938 335.71875 Z M 239.210938 335.71875 "/>
<path style=" stroke:none;fill-rule:nonzero;fill:rgb(92.941176%,5.882353%,41.176471%);fill-opacity:1;" d="M 47.960938 214.96875 C 46.074219 214.121094 44.078125 213.039062 42.0625 211.691406 C 43.980469 212.527344 45.917969 213.628906 47.960938 214.96875 Z M 47.960938 214.96875 "/>
<path style=" stroke:none;fill-rule:nonzero;fill:rgb(92.941176%,5.882353%,41.176471%);fill-opacity:1;" d="M 224.960938 326.71875 C 223.074219 325.871094 221.078125 324.789062 219.0625 323.441406 C 220.980469 324.277344 222.917969 325.378906 224.960938 326.71875 Z M 224.960938 326.71875 "/>
<path style=" stroke:none;fill-rule:nonzero;fill:rgb(92.941176%,5.882353%,41.176471%);fill-opacity:1;" d="M 11.210938 191.71875 C 9.324219 190.867188 7.328125 189.78125 5.304688 188.425781 C 7.222656 189.269531 9.164062 190.375 11.210938 191.71875 Z M 11.210938 191.71875 "/>
<path style=" stroke:none;fill-rule:nonzero;fill:rgb(92.941176%,5.882353%,41.176471%);fill-opacity:1;" d="M 19.460938 196.96875 C 17.574219 196.121094 15.578125 195.039062 13.5625 193.691406 C 15.480469 194.527344 17.417969 195.628906 19.460938 196.96875 Z M 19.460938 196.96875 "/>
<path style=" stroke:none;fill-rule:nonzero;fill:rgb(92.941176%,5.882353%,41.176471%);fill-opacity:1;" d="M 25.460938 200.71875 C 23.574219 199.871094 21.578125 198.789062 19.5625 197.441406 C 21.480469 198.277344 23.417969 199.378906 25.460938 200.71875 Z M 25.460938 200.71875 "/>
<path style=" stroke:none;fill-rule:nonzero;fill:rgb(92.941176%,5.882353%,41.176471%);fill-opacity:1;" d="M 218.960938 322.96875 C 217.074219 322.121094 215.078125 321.039062 213.0625 319.691406 C 214.980469 320.527344 216.917969 321.628906 218.960938 322.96875 Z M 218.960938 322.96875 "/>
<path style=" stroke:none;fill-rule:nonzero;fill:rgb(92.941176%,5.882353%,41.176471%);fill-opacity:1;" d="M 33.710938 205.96875 C 31.824219 205.121094 29.828125 204.039062 27.8125 202.691406 C 29.730469 203.527344 31.667969 204.628906 33.710938 205.96875 Z M 33.710938 205.96875 "/>
<path style=" stroke:none;fill-rule:nonzero;fill:rgb(92.941176%,5.882353%,41.176471%);fill-opacity:1;" d="M 39.710938 209.71875 C 37.824219 208.871094 35.828125 207.789062 33.8125 206.441406 C 35.730469 207.277344 37.667969 208.378906 39.710938 209.71875 Z M 39.710938 209.71875 "/>
<path style=" stroke:none;fill-rule:nonzero;fill:rgb(92.941176%,5.882353%,41.176471%);fill-opacity:1;" d="M 210.710938 317.71875 C 208.824219 316.871094 206.828125 315.789062 204.8125 314.441406 C 206.730469 315.277344 208.667969 316.378906 210.710938 317.71875 Z M 210.710938 317.71875 "/>
<path style=" stroke:none;fill-rule:nonzero;fill:rgb(92.941176%,5.882353%,41.176471%);fill-opacity:1;" d="M 96.710938 245.71875 C 94.824219 244.871094 92.828125 243.789062 90.8125 242.441406 C 92.730469 243.277344 94.667969 244.378906 96.710938 245.71875 Z M 96.710938 245.71875 "/>
<path style=" stroke:none;fill-rule:nonzero;fill:rgb(92.941176%,5.882353%,41.176471%);fill-opacity:1;" d="M 53.960938 218.71875 C 52.074219 217.871094 50.078125 216.789062 48.0625 215.441406 C 49.980469 216.277344 51.917969 217.378906 53.960938 218.71875 Z M 53.960938 218.71875 "/>
<path style=" stroke:none;fill-rule:nonzero;fill:rgb(92.941176%,5.882353%,41.176471%);fill-opacity:1;" d="M 204.710938 313.96875 C 202.824219 313.121094 200.828125 312.039062 198.8125 310.691406 C 200.730469 311.527344 202.667969 312.628906 204.710938 313.96875 Z M 204.710938 313.96875 "/>
<path style=" stroke:none;fill-rule:nonzero;fill:rgb(92.941176%,5.882353%,41.176471%);fill-opacity:1;" d="M 62.210938 223.96875 C 60.324219 223.121094 58.328125 222.039062 56.3125 220.691406 C 58.230469 221.527344 60.167969 222.628906 62.210938 223.96875 Z M 62.210938 223.96875 "/>
<path style=" stroke:none;fill-rule:nonzero;fill:rgb(92.941176%,5.882353%,41.176471%);fill-opacity:1;" d="M 68.210938 227.71875 C 66.324219 226.871094 64.328125 225.789062 62.3125 224.441406 C 64.230469 225.277344 66.167969 226.378906 68.210938 227.71875 Z M 68.210938 227.71875 "/>
<path style=" stroke:none;fill-rule:nonzero;fill:rgb(92.941176%,5.882353%,41.176471%);fill-opacity:1;" d="M 76.460938 232.96875 C 74.574219 232.121094 72.578125 231.039062 70.5625 229.691406 C 72.480469 230.527344 74.417969 231.628906 76.460938 232.96875 Z M 76.460938 232.96875 "/>
<path style=" stroke:none;fill-rule:nonzero;fill:rgb(92.941176%,5.882353%,41.176471%);fill-opacity:1;" d="M 233.210938 331.96875 C 231.324219 331.121094 229.328125 330.039062 227.3125 328.691406 C 229.230469 329.527344 231.167969 330.628906 233.210938 331.96875 Z M 233.210938 331.96875 "/>
<path style=" stroke:none;fill-rule:nonzero;fill:rgb(92.941176%,5.882353%,41.176471%);fill-opacity:1;" d="M 90.710938 241.96875 C 88.824219 241.121094 86.828125 240.039062 84.8125 238.691406 C 86.730469 239.527344 88.667969 240.628906 90.710938 241.96875 Z M 90.710938 241.96875 "/>
<path style=" stroke:none;fill-rule:nonzero;fill:rgb(92.941176%,5.882353%,41.176471%);fill-opacity:1;" d="M 251.175781 343.984375 C 249.941406 343.394531 248.761719 342.539062 247.558594 341.429688 C 248.769531 342.023438 249.996094 342.871094 251.175781 343.984375 Z M 251.175781 343.984375 "/>
<path style=" stroke:none;fill-rule:nonzero;fill:rgb(92.941176%,5.882353%,41.176471%);fill-opacity:1;" d="M 241.984375 463.574219 C 241.78125 465.210938 241.300781 466.777344 239.296875 464.617188 C 240.074219 464.09375 240.898438 463.808594 241.984375 463.574219 Z M 241.984375 463.574219 "/>
<path style=" stroke:none;fill-rule:nonzero;fill:rgb(92.941176%,5.882353%,41.176471%);fill-opacity:1;" d="M 237.484375 464.324219 C 237.28125 465.960938 236.800781 467.527344 234.796875 465.367188 C 235.574219 464.84375 236.398438 464.558594 237.484375 464.324219 Z M 237.484375 464.324219 "/>
<path style=" stroke:none;fill-rule:nonzero;fill:rgb(92.941176%,5.882353%,41.176471%);fill-opacity:1;" d="M 232.234375 465.074219 C 232.03125 466.710938 231.550781 468.277344 229.546875 466.117188 C 230.324219 465.59375 231.148438 465.308594 232.234375 465.074219 Z M 232.234375 465.074219 "/>
<path style=" stroke:none;fill-rule:nonzero;fill:rgb(92.941176%,5.882353%,41.176471%);fill-opacity:1;" d="M 224.734375 465.824219 C 224.53125 467.460938 224.050781 469.027344 222.046875 466.867188 C 222.824219 466.34375 223.648438 466.058594 224.734375 465.824219 Z M 224.734375 465.824219 "/>
<path style=" stroke:none;fill-rule:nonzero;fill:rgb(92.941176%,5.882353%,41.176471%);fill-opacity:1;" d="M 212.734375 466.574219 C 212.53125 468.210938 212.050781 469.777344 210.046875 467.617188 C 210.824219 467.09375 211.648438 466.808594 212.734375 466.574219 Z M 212.734375 466.574219 "/>
<path style=" stroke:none;fill-rule:nonzero;fill:rgb(92.941176%,5.882353%,41.176471%);fill-opacity:1;" d="M 241.472656 337.230469 C 240.828125 337.125 240.085938 336.796875 239.316406 336.195312 C 239.988281 336.285156 240.679688 336.644531 241.472656 337.230469 Z M 241.472656 337.230469 "/>
<path style=" stroke:none;fill-rule:nonzero;fill:rgb(92.941176%,5.882353%,41.176471%);fill-opacity:1;" d="M 141.722656 274.230469 C 141.078125 274.125 140.335938 273.796875 139.566406 273.195312 C 140.238281 273.285156 140.929688 273.644531 141.722656 274.230469 Z M 141.722656 274.230469 "/>
<path style=" stroke:none;fill-rule:nonzero;fill:rgb(92.941176%,5.882353%,41.176471%);fill-opacity:1;" d="M 227.222656 328.230469 C 226.578125 328.125 225.835938 327.796875 225.066406 327.195312 C 225.738281 327.285156 226.429688 327.644531 227.222656 328.230469 Z M 227.222656 328.230469 "/>
<path style=" stroke:none;fill-rule:nonzero;fill:rgb(92.941176%,5.882353%,41.176471%);fill-opacity:1;" d="M 198.722656 310.230469 C 198.078125 310.125 197.335938 309.796875 196.566406 309.195312 C 197.238281 309.285156 197.929688 309.644531 198.722656 310.230469 Z M 198.722656 310.230469 "/>
<path style=" stroke:none;fill-rule:nonzero;fill:rgb(92.941176%,5.882353%,41.176471%);fill-opacity:1;" d="M 13.472656 193.230469 C 12.828125 193.125 12.085938 192.796875 11.316406 192.195312 C 11.988281 192.285156 12.679688 192.644531 13.472656 193.230469 Z M 13.472656 193.230469 "/>
<path style=" stroke:none;fill-rule:nonzero;fill:rgb(92.941176%,5.882353%,41.176471%);fill-opacity:1;" d="M 27.722656 202.230469 C 27.078125 202.125 26.335938 201.796875 25.566406 201.195312 C 26.238281 201.285156 26.929688 201.644531 27.722656 202.230469 Z M 27.722656 202.230469 "/>
<path style=" stroke:none;fill-rule:nonzero;fill:rgb(92.941176%,5.882353%,41.176471%);fill-opacity:1;" d="M 41.972656 211.230469 C 41.328125 211.125 40.585938 210.796875 39.816406 210.195312 C 40.488281 210.285156 41.179688 210.644531 41.972656 211.230469 Z M 41.972656 211.230469 "/>
<path style=" stroke:none;fill-rule:nonzero;fill:rgb(92.941176%,5.882353%,41.176471%);fill-opacity:1;" d="M 56.222656 220.230469 C 55.578125 220.125 54.835938 219.796875 54.066406 219.195312 C 54.738281 219.285156 55.429688 219.644531 56.222656 220.230469 Z M 56.222656 220.230469 "/>
<path style=" stroke:none;fill-rule:nonzero;fill:rgb(92.941176%,5.882353%,41.176471%);fill-opacity:1;" d="M 70.472656 229.230469 C 69.828125 229.125 69.085938 228.796875 68.316406 228.195312 C 68.988281 228.285156 69.679688 228.644531 70.472656 229.230469 Z M 70.472656 229.230469 "/>
<path style=" stroke:none;fill-rule:nonzero;fill:rgb(92.941176%,5.882353%,41.176471%);fill-opacity:1;" d="M 84.722656 238.230469 C 84.078125 238.125 83.335938 237.796875 82.566406 237.195312 C 83.238281 237.285156 83.929688 237.644531 84.722656 238.230469 Z M 84.722656 238.230469 "/>
<path style=" stroke:none;fill-rule:nonzero;fill:rgb(92.941176%,5.882353%,41.176471%);fill-opacity:1;" d="M 98.972656 247.230469 C 98.328125 247.125 97.585938 246.796875 96.816406 246.195312 C 97.488281 246.285156 98.179688 246.644531 98.972656 247.230469 Z M 98.972656 247.230469 "/>
<path style=" stroke:none;fill-rule:nonzero;fill:rgb(92.941176%,5.882353%,41.176471%);fill-opacity:1;" d="M 113.222656 256.230469 C 112.578125 256.125 111.835938 255.796875 111.066406 255.195312 C 111.738281 255.285156 112.429688 255.644531 113.222656 256.230469 Z M 113.222656 256.230469 "/>
<path style=" stroke:none;fill-rule:nonzero;fill:rgb(92.941176%,5.882353%,41.176471%);fill-opacity:1;" d="M 127.472656 265.230469 C 126.828125 265.125 126.085938 264.796875 125.316406 264.195312 C 125.988281 264.285156 126.679688 264.644531 127.472656 265.230469 Z M 127.472656 265.230469 "/>
<path style=" stroke:none;fill-rule:nonzero;fill:rgb(92.941176%,5.882353%,41.176471%);fill-opacity:1;" d="M 155.972656 283.230469 C 155.328125 283.125 154.585938 282.796875 153.816406 282.195312 C 154.488281 282.285156 155.179688 282.644531 155.972656 283.230469 Z M 155.972656 283.230469 "/>
<path style=" stroke:none;fill-rule:nonzero;fill:rgb(92.941176%,5.882353%,41.176471%);fill-opacity:1;" d="M 170.222656 292.230469 C 169.578125 292.125 168.835938 291.796875 168.066406 291.195312 C 168.738281 291.285156 169.429688 291.644531 170.222656 292.230469 Z M 170.222656 292.230469 "/>
<path style=" stroke:none;fill-rule:nonzero;fill:rgb(92.941176%,5.882353%,41.176471%);fill-opacity:1;" d="M 184.472656 301.230469 C 183.828125 301.125 183.085938 300.796875 182.316406 300.195312 C 182.988281 300.285156 183.679688 300.644531 184.472656 301.230469 Z M 184.472656 301.230469 "/>
<path style=" stroke:none;fill-rule:nonzero;fill:rgb(92.941176%,5.882353%,41.176471%);fill-opacity:1;" d="M 212.972656 319.230469 C 212.328125 319.125 211.585938 318.796875 210.816406 318.195312 C 211.488281 318.285156 212.179688 318.644531 212.972656 319.230469 Z M 212.972656 319.230469 "/>
<path style=" stroke:none;fill-rule:nonzero;fill:rgb(92.941176%,5.882353%,41.176471%);fill-opacity:1;" d="M 34.25 467.324219 C 34.261719 467.734375 34.019531 468.097656 33.78125 468.457031 C 33.542969 468.238281 33.304688 468.015625 33.035156 467.585938 C 33.335938 467.339844 33.667969 467.304688 34.25 467.324219 Z M 34.25 467.324219 "/>
<path style=" stroke:none;fill-rule:nonzero;fill:rgb(92.941176%,5.882353%,41.176471%);fill-opacity:1;" d="M 250.152344 380.007812 C 250.191406 379.761719 250.371094 379.683594 250.835938 379.554688 C 250.847656 379.726562 250.566406 379.953125 250.152344 380.007812 Z M 250.152344 380.007812 "/>
<path style=" stroke:none;fill-rule:nonzero;fill:rgb(92.941176%,5.882353%,41.176471%);fill-opacity:1;" d="M 250.703125 494.898438 C 250.582031 494.683594 250.699219 494.523438 250.992188 494.332031 C 251.046875 494.484375 250.972656 494.703125 250.703125 494.898438 Z M 250.703125 494.898438 "/>
</g>
</svg>
