<?xml version="1.0" encoding="utf-8"?>
<!-- Uploaded to: SVG Repo, www.svgrepo.com, Generator: SVG Repo Mixer Tools -->
<svg fill="#000000" height="800px" width="800px" version="1.1" id="Layer_1" xmlns="http://www.w3.org/2000/svg" xmlns:xlink="http://www.w3.org/1999/xlink" 
	 viewBox="0 0 64 64" enable-background="new 0 0 64 64" xml:space="preserve">
<g id="Asterisk">
	<path d="M42.4071999,31.0002003h-7.9940987l5.872097-5.8721008c0.3906021-0.3906002,0.3906021-1.0233994,0-1.4139996
		c-0.3906975-0.3906994-1.0234985-0.3906994-1.4140968,0l-5.8701019,5.8701v-7.9902992c0-0.5527-0.4473-1-1-1s-1,0.4473-1,1
		v7.9921989l-5.8720989-5.8719997c-0.3906002-0.3906994-1.0234013-0.3906994-1.4139996,0
		c-0.3907013,0.3906002-0.3907013,1.0233994,0,1.4139996l5.8719997,5.8721008h-7.9941006c-0.5527992,0-1,0.4471989-1,0.9999981
		c0,0.5527,0.4472008,1,1,1h7.9922009l-5.8701,5.8701019c-0.3907013,0.3905983-0.3907013,1.0233994,0,1.4141006
		c0.1952991,0.1952972,0.4510994,0.2929001,0.7069988,0.2929001c0.2558002,0,0.5116997-0.0976028,0.7070007-0.2929001
		l5.8720989-5.8721008v7.9940987c0,0.552803,0.4473,1,1,1s1-0.447197,1-1v-7.9921989l5.8701019,5.8702011
		c0.1953201,0.1952972,0.4511986,0.2929001,0.7069969,0.2929001c0.2559013,0,0.5118027-0.0976028,0.7070999-0.2929001
		c0.3906021-0.3907013,0.3906021-1.0235023,0-1.4141006l-5.8701973-5.8701019h7.9921989c0.5527992,0,1-0.4473,1-1
		C43.4071999,31.4473991,42.9599991,31.0002003,42.4071999,31.0002003z"/>
	<path d="M32,0c-17.6730995,0-32,14.3268003-32,32c0,17.6730995,14.3268995,32,32,32c17.6731987,0,32-14.3269005,32-32
		C64,14.3268003,49.6731987,0,32,0z M32,62c-16.5419998,0-30-13.457901-30-30S15.4580002,2,32,2c16.542099,0,30,13.4579,30,30
		S48.542099,62,32,62z"/>
</g>
</svg>