<?xml version="1.0" encoding="UTF-8" standalone="no" ?>
<!DOCTYPE svg PUBLIC "-//W3C//DTD SVG 1.1//EN" "http://www.w3.org/Graphics/SVG/1.1/DTD/svg11.dtd">
<svg xmlns="http://www.w3.org/2000/svg" xmlns:xlink="http://www.w3.org/1999/xlink" version="1.1" width="16" height="16" viewBox="0 0 1080 1080" xml:space="preserve">
<desc>Created with Fabric.js 5.2.4</desc>
<defs>
</defs>
<g transform="matrix(1 0 0 1 540 540)" id="3bb98788-0a78-472d-823e-772736bade18"  >
</g>
<g transform="matrix(1 0 0 1 540 540)" id="6a82fd6f-ff2b-4879-ae95-fedef60f4303"  >
<rect style="stroke: none; stroke-width: 1; stroke-dasharray: none; stroke-linecap: butt; stroke-dashoffset: 0; stroke-linejoin: miter; stroke-miterlimit: 4; fill: rgb(255,255,255); fill-rule: nonzero; opacity: 1; visibility: hidden;" vector-effect="non-scaling-stroke"  x="-540" y="-540" rx="0" ry="0" width="1080" height="1080" />
</g>
<g transform="matrix(1 0 0 1 540 540)" id="68ccef84-4090-43ad-a4d2-9a41feafb4fb"  >
<polygon style="stroke: rgb(0,0,0); stroke-width: 0; stroke-dasharray: none; stroke-linecap: butt; stroke-dashoffset: 0; stroke-linejoin: miter; stroke-miterlimit: 4; fill: rgb(9,225,30); fill-rule: nonzero; opacity: 1;" vector-effect="non-scaling-stroke"  points="119.99,-0.5 227,-62.29 167.01,-166.21 60,-104.42 60,-227.5 -60,-227.5 -60,-104.42 -167.01,-166.21 -227,-62.29 -119.99,-0.5 -227,61.29 -167.01,165.21 -60,103.42 -60,227.5 60,227.5 60,103.42 167.01,165.21 227,61.29 " />
</g>
</svg>